# xmcd
#
# Track frame offsets:
#	150
#	164863
#	195490
#	231371
#	320314
#	336157
#
# Disc length: 4698 seconds
#
# Revision: 1
# Processed by: cddbd v1.5PL3 Copyright (c) Steve Scherf et al.
# Submitted via: audiograbber 1.82.01
#
DISCID=52125806
DTITLE=Jimi Hendrix - "Lonely Avenue" - Outtake Masters
DYEAR=1900
DGENRE=
TTITLE0=Jimi Hendrix - Jam with Buddy Miles
TTITLE1=Jimi Hendrix - Jam with Buddy Miles part 2
TTITLE2=Jimi Hendrix - Honey Bed (takes 1 - 4)
TTITLE3=Jimi Hendrix - Ezy Ryder Jam - MLK - Cherokee Mist
TTITLE4=Jimi Hendrix - Hey Little One I
TTITLE5=Jimi Hendrix - Hey Little One II
EXTD=
EXTT0=
EXTT1=
EXTT2=
EXTT3=
EXTT4=
EXTT5=
PLAYORDER=
